<svg width="932" height="1051" viewBox="0 0 932 1051" fill="none" xmlns="http://www.w3.org/2000/svg">
    <line x1="211" y1="954.5" x2="2213.34" y2="954.5" stroke="black"/>
    <line x1="211" y1="1050.5" x2="2213.34" y2="1050.5" stroke="black"/>
    <path d="M1 988.5L210.5 988.5" stroke="black"/>
    <line x1="1" y1="892.5" x2="2003.34" y2="892.5" stroke="black"/>
    <line x1="1.14158" y1="988.52" x2="211.142" y2="1050.52" stroke="black"/>
    <line x1="1.14158" y1="892.52" x2="211.142" y2="954.52" stroke="black"/>
    <line x1="0.5" y1="989" x2="0.499996" y2="893" stroke="black"/>
    <line x1="210.5" y1="1051" x2="210.5" y2="955" stroke="black"/>
    <path d="M211 573.5L603 573.5" stroke="black"/>
    <line x1="211" y1="669.5" x2="2213.34" y2="669.5" stroke="black"/>
    <path d="M1 607.5L210.5 607.5" stroke="black"/>
    <line x1="1" y1="511.5" x2="442" y2="511.5" stroke="black"/>
    <line x1="1.14158" y1="607.52" x2="211.142" y2="669.52" stroke="black"/>
    <line x1="1.14158" y1="511.52" x2="211.142" y2="573.52" stroke="black"/>
    <line x1="0.5" y1="608" x2="0.499996" y2="512" stroke="black"/>
    <line x1="210.5" y1="670" x2="210.5" y2="574" stroke="black"/>
    <line x1="399" y1="381.5" x2="2401.34" y2="381.5" stroke="black"/>
    <line x1="399" y1="477.5" x2="2401.34" y2="477.5" stroke="black"/>
    <path d="M189 415.5L398.5 415.5" stroke="black"/>
    <line x1="189" y1="319.5" x2="2191.34" y2="319.5" stroke="black"/>
    <line x1="189.142" y1="415.52" x2="399.142" y2="477.52" stroke="black"/>
    <line x1="189.142" y1="319.52" x2="399.142" y2="381.52" stroke="black"/>
    <line x1="188.5" y1="416" x2="188.5" y2="320" stroke="black"/>
    <line x1="398.5" y1="478" x2="398.5" y2="382" stroke="black"/>
    <line x1="851" y1="189.5" x2="2853.34" y2="189.5" stroke="black"/>
    <line x1="851" y1="285.5" x2="2853.34" y2="285.5" stroke="black"/>
    <path d="M641 223.5L850.5 223.5" stroke="black"/>
    <line x1="641" y1="127.5" x2="2643.34" y2="127.5" stroke="black"/>
    <line x1="641.142" y1="223.52" x2="851.142" y2="285.52" stroke="black"/>
    <line x1="641.142" y1="127.52" x2="851.142" y2="189.52" stroke="black"/>
    <line x1="640.5" y1="224" x2="640.5" y2="128" stroke="black"/>
    <line x1="850.5" y1="286" x2="850.5" y2="190" stroke="black"/>
    <line x1="240" y1="62.5" x2="2242.34" y2="62.5001" stroke="black"/>
    <line x1="240" y1="158.5" x2="641" y2="158.5" stroke="black"/>
    <path d="M30 96.5001L239.5 96.4999" stroke="black"/>
    <line x1="30" y1="0.5" x2="2032.34" y2="0.500087" stroke="black"/>
    <line x1="30.1416" y1="96.5205" x2="240.142" y2="158.52" stroke="black"/>
    <line x1="30.1416" y1="0.520463" x2="240.142" y2="62.5205" stroke="black"/>
    <line x1="29.5" y1="97" x2="29.5" y2="1" stroke="black"/>
    <line x1="239.5" y1="159" x2="239.5" y2="63" stroke="black"/>
    <path d="M240 271.5L804 271.5" stroke="black"/>
    <path d="M29.9998 305.5L239.5 305.5" stroke="black"/>
    <path d="M29.9998 209.5L640.332 209.5" stroke="black"/>
    <path d="M30.1414 305.52L188.5 355" stroke="black"/>
    <line x1="30.1413" y1="209.52" x2="240.141" y2="271.52" stroke="black"/>
    <line x1="29.4998" y1="306" x2="29.4998" y2="210" stroke="black"/>
    <line x1="239.5" y1="320" x2="239.5" y2="272" stroke="black"/>
    <line x1="483" y1="731.5" x2="2485.34" y2="731.5" stroke="black"/>
    <line x1="483" y1="827.5" x2="2485.34" y2="827.5" stroke="black"/>
    <line x1="273" y1="669.5" x2="2275.34" y2="669.5" stroke="black"/>
    <line x1="273.142" y1="765.52" x2="483.142" y2="827.52" stroke="black"/>
    <line x1="273.142" y1="669.52" x2="483.142" y2="731.52" stroke="black"/>
    <line x1="272.5" y1="766" x2="272.5" y2="670" stroke="black"/>
    <line x1="482.5" y1="828" x2="482.5" y2="732" stroke="black"/>
    <path d="M273 669.5L483 732V827.5L273 766V669.5Z" fill="black"/>
    <line x1="609" y1="557" x2="2611.34" y2="557" stroke="black"/>
    <line x1="609" y1="653" x2="2611.34" y2="653" stroke="black"/>
    <line x1="399" y1="495" x2="2401.34" y2="495" stroke="black"/>
    <line x1="399.142" y1="591.02" x2="609.142" y2="653.02" stroke="black"/>
    <line x1="399.142" y1="495.02" x2="609.142" y2="557.02" stroke="black"/>
    <line x1="398.5" y1="591.5" x2="398.5" y2="495.5" stroke="black"/>
    <line x1="608.5" y1="653.5" x2="608.5" y2="557.5" stroke="black"/>
    <path d="M399 495L609 557.5V653L399 591.5V495Z" fill="black"/>
</svg>
