<svg width="196" height="201" viewBox="0 0 196 201" fill="none" xmlns="http://www.w3.org/2000/svg">
    <path fill-rule="evenodd" clip-rule="evenodd" d="M154.523 100.492V100.492L154.658 101.058L155.065 101.633L155.745 102.225L156.697 102.841L157.923 103.491L159.421 104.182L161.188 104.923L163.218 105.722L165.5 106.585L168.015 107.518L170.738 108.527L173.631 109.613L176.646 110.776L179.722 112.011L182.784 113.309L185.745 114.656L188.509 116.032L190.973 117.414L193.038 118.774L194.611 120.081L195.616 121.303L196 122.412L195.738 123.382L194.835 124.195L193.33 124.84L191.285 125.314L188.785 125.624L185.928 125.782L182.816 125.808L179.551 125.725L176.227 125.556L172.926 125.328L169.72 125.064L166.662 124.786L163.796 124.515L161.153 124.269L158.753 124.062L156.609 123.907L154.727 123.816L153.109 123.797L151.755 123.861L150.66 124.014L149.822 124.264L149.236 124.619L148.897 125.084L148.803 125.668L148.949 126.379L149.333 127.223L149.952 128.209L150.802 129.345L151.879 130.637L153.175 132.091L154.683 133.712L156.387 135.499L158.268 137.452L160.3 139.561L162.447 141.811L164.665 144.18L166.9 146.636L169.086 149.137L171.151 151.632L173.015 154.06L174.598 156.355L175.822 158.449L176.618 160.273L176.933 161.768L176.735 162.886L176.016 163.597L174.791 163.887L173.103 163.766L171.01 163.262L168.588 162.418L165.92 161.29L163.089 159.939L160.178 158.432L157.259 156.829L154.394 155.189L151.634 153.564L149.019 151.995L146.576 150.521L144.326 149.167L142.278 147.957L140.438 146.907L138.807 146.029L137.382 145.333L136.158 144.825L135.129 144.512L134.287 144.398L133.627 144.487L133.14 144.785L132.822 145.296L132.664 146.026L132.662 146.981L132.81 148.166L133.1 149.586L133.525 151.247L134.077 153.149L134.746 155.292L135.517 157.67L136.374 160.271L137.297 163.076L138.259 166.054L139.229 169.165L140.171 172.354L141.046 175.553L141.808 178.684L142.413 181.657L142.818 184.376L142.981 186.747L142.873 188.679L142.473 190.098L141.774 190.949L140.783 191.205L139.524 190.865L138.028 189.957L136.341 188.537L134.51 186.677L132.587 184.465L130.62 181.994L128.653 179.356L126.725 176.64L124.864 173.923L123.095 171.272L121.432 168.741L119.886 166.373L118.459 164.202L117.154 162.251L115.966 160.535L114.89 159.067L113.921 157.852L113.049 156.894L112.268 156.196L111.569 155.759L110.943 155.585L110.383 155.674L109.881 156.028L109.428 156.65L109.017 157.542L108.639 158.706L108.287 160.145L107.952 161.858L107.625 163.844L107.297 166.096L106.958 168.604L106.599 171.347L106.21 174.297L105.779 177.415L105.297 180.65L104.756 183.934L104.147 187.188L103.467 190.32L102.714 193.228L101.891 195.809L101.003 197.959L100.061 199.585L99.0816 200.615L98.0809 201L97.0786 200.721L96.0942 199.791L95.1458 198.255L94.2485 196.183L93.414 193.664L92.6494 190.801L91.9579 187.697L91.3384 184.456L90.7867 181.171L90.296 177.924L89.8577 174.784L89.4621 171.803L89.0989 169.025L88.7579 166.479L88.429 164.185L88.1025 162.156L87.7692 160.399L87.4202 158.917L87.0471 157.709L86.6417 156.774L86.1959 156.109L85.7019 155.712L85.1517 155.581L84.5373 155.714L83.8504 156.109L83.0828 156.765L82.2263 157.682L81.2728 158.856L80.2146 160.285L79.0449 161.961L77.7582 163.876L76.3513 166.014L74.8237 168.352L73.179 170.859L71.4257 173.495L69.5785 176.206L67.6588 178.927L65.6959 181.582L63.7261 184.086L61.7928 186.346L59.9441 188.268L58.2306 189.764L56.7015 190.757L55.4016 191.19L54.3665 191.03L53.6201 190.273L53.1724 188.941L53.0188 187.086L53.141 184.78L53.5093 182.11L54.0853 179.171L54.8257 176.059L55.6853 172.864L56.6199 169.669L57.5883 166.542L58.5535 163.54L59.4841 160.705L60.3533 158.07L61.1395 155.655L61.8254 153.474L62.3969 151.533L62.8432 149.835L63.1553 148.376L63.3258 147.154L63.348 146.163L63.2158 145.398L62.9232 144.852L62.464 144.52L61.8317 144.398L61.0195 144.48L60.0204 144.762L58.8277 145.239L57.4349 145.906L55.837 146.755L54.0307 147.779L52.0159 148.964L49.797 150.296L47.3839 151.754L44.7945 153.309L42.0554 154.928L39.2042 156.569L36.2897 158.181L33.3725 159.708L30.5242 161.088L27.8245 162.256L25.3576 163.149L23.2071 163.711L21.4494 163.895L20.1478 163.671L19.3462 163.027L19.0652 161.972L19.3004 160.534L20.0229 158.759L21.1826 156.704L22.7133 154.436L24.5382 152.024L26.5765 149.536L28.7485 147.033L30.98 144.566L33.2048 142.181L35.3667 139.91L37.4195 137.777L39.3266 135.799L41.0603 133.985L42.6001 132.338L43.9311 130.857L45.0434 129.54L45.9298 128.38L46.5856 127.37L47.0071 126.504L47.1915 125.773L47.1355 125.169L46.8361 124.685L46.2896 124.314L45.4917 124.048L44.4384 123.879L43.1255 123.802L41.5499 123.808L39.7101 123.888L37.6074 124.033L35.2474 124.233L32.6418 124.474L29.8097 124.742L26.7802 125.02L23.5938 125.288L20.3041 125.523L16.9785 125.703L13.698 125.802L10.555 125.795L7.65 125.659L5.08636 125.374L2.963 124.927L1.36692 124.309L0.36548 123.523L0 122.576L0.281698 121.488L1.19063 120.282L2.67782 118.987L4.67025 117.633L7.07768 116.253L9.80036 114.873L12.7365 113.521L15.7885 112.214L18.8677 110.968L21.8973 109.794L24.8136 108.695L27.5662 107.674L30.1165 106.728L32.4367 105.854L34.5077 105.046L36.3173 104.297L37.8584 103.598L39.1275 102.942L40.1234 102.321L40.8462 101.726L41.2968 101.149L41.4757 100.582L41.3833 100.015L41.0193 99.4423L40.3832 98.8539L39.4743 98.242L38.2922 97.5982L36.8376 96.9141L35.113 96.1816L33.1242 95.3929L30.8816 94.5406L28.402 93.6184L25.7102 92.6217L22.8412 91.5478L19.8414 90.397L16.7702 89.1732L13.7005 87.8846L10.7172 86.5445L7.9156 85.1713L5.39669 83.7882L3.26167 82.4228L1.60464 81.1055L0.504933 79.8677L0.0198218 78.7389L0.178878 77.7452L0.98085 76.9064L2.3937 76.2345L4.35775 75.7333L6.79148 75.3981L9.59887 75.2166L12.6772 75.1709L15.9245 75.2386L19.2451 75.3953L22.5542 75.6158L25.78 75.8758L28.8644 76.1526L31.7631 76.4258L34.4434 76.6773L36.8832 76.8917L39.0686 77.0556L40.9925 77.1577L42.6523 77.188L44.0485 77.1379L45.1841 76.9994L46.0629 76.7653L46.689 76.4281L47.0668 75.9808L47.1999 75.4161L47.0917 74.7263L46.7454 73.9038L46.1639 72.9407L45.3505 71.8295L44.3095 70.5628L43.0473 69.1347L41.5726 67.5409L39.8988 65.7796L38.0442 63.8531L36.0343 61.7684L33.9027 59.5393L31.6923 57.1872L29.4562 54.7425L27.2575 52.2454L25.1681 49.7459L23.2664 47.3029L21.6334 44.9818L20.3478 42.8516L19.4797 40.9802L19.085 39.429L19.1999 38.2481L19.8367 37.4716L20.9828 37.1144L22.6012 37.171L24.6344 37.6166L27.0094 38.4099L29.6442 39.497L32.4541 40.8163L35.3576 42.3034L38.28 43.8951L41.1573 45.5325L43.9367 47.1635L46.5772 48.7433L49.0487 50.2351L51.3309 51.6096L53.4115 52.8438L55.2843 53.9203L56.9484 54.8261L58.4061 55.5517L59.6619 56.0897L60.7219 56.4343L61.5928 56.5806L62.2817 56.524L62.7954 56.2598L63.1403 55.7829L63.3229 55.088L63.3492 54.1695L63.2253 53.0216L62.9576 51.6389L62.5532 50.017L62.0204 48.1534L61.3696 46.0486L60.6137 43.7073L59.7687 41.1404L58.8551 38.3663L57.8977 35.4131L56.9266 32.3203L55.9769 29.1399L55.0887 25.9371L54.3054 22.7894L53.6722 19.7851L53.2333 17.0189L53.029 14.5867L53.0922 12.5793L53.445 11.0743L54.0966 10.1298L55.0417 9.77869L56.2607 10.0253L57.7212 10.8454L59.3812 12.1888L61.1924 13.9843L63.1041 16.1464L65.0673 18.5825L67.0367 21.1993L68.9736 23.9084L70.8466 26.6301L72.6317 29.2958L74.3122 31.8491L75.8777 34.245L77.3232 36.4493L78.6479 38.4371L79.8544 40.1911L80.9474 41.6995L81.9335 42.9552L82.8201 43.9539L83.615 44.6932L84.3267 45.1716L84.9634 45.3881L85.5332 45.3412L86.0442 45.0294L86.5044 44.4503L86.9218 43.6017L87.3044 42.4808L87.6601 41.0859L87.9975 39.4161L88.3252 37.4733L88.6523 35.2627L88.9883 32.7952L89.3433 30.0882L89.7275 27.1684L90.1512 24.0736L90.6242 20.8537L91.1556 17.5726L91.7529 14.308L92.4212 11.15L93.1626 8.19873L93.9754 5.55893L94.8538 3.33407L95.7874 1.61849L96.7622 0.489463L97.7608 0L98.7642 0.173632L99.7527 1.00198L100.708 2.4456L101.614 4.43803L102.459 6.8921L103.235 9.70774L103.939 12.7799L104.569 16.0055L105.131 19.2892L105.631 22.5471L106.077 25.7088L106.479 28.7176L106.847 31.5302L107.191 34.1149L107.521 36.45L107.847 38.5217L108.179 40.3223L108.525 41.8486L108.893 43.1002L109.293 44.0787L109.732 44.7862L110.218 45.2254L110.758 45.3986L111.362 45.3078L112.037 44.9544L112.791 44.3396L113.633 43.4646L114.57 42.3313L115.611 40.9429L116.763 39.3052L118.031 37.4273L119.418 35.3238L120.927 33.0158L122.553 30.5328L124.29 27.9145L126.124 25.2117L128.033 22.4873L129.992 19.8159L131.963 17.282L133.905 14.9772L135.771 12.9952L137.509 11.4259L139.071 10.3481L140.41 9.82278L141.489 9.88709L142.283 10.5505L142.778 11.7934L142.977 13.5695L142.897 15.8094L142.566 18.4278L142.02 21.3304L141.303 24.4211L140.459 27.6079L139.534 30.808L138.568 33.9499L137.6 36.9754L136.662 39.8393L135.782 42.5081L134.981 44.9589L134.278 47.1777L133.688 49.1568L133.221 50.894L132.887 52.3905L132.693 53.65L132.647 54.6774L132.754 55.4784L133.021 56.0588L133.453 56.424L134.057 56.5792L134.84 56.5292L135.809 56.2788L136.971 55.8325L138.331 55.1958L139.896 54.375L141.669 53.3787L143.651 52.218L145.838 50.9081L148.221 49.469L150.784 47.9271L153.501 46.3155L156.338 44.6751L159.246 43.0546L162.167 41.5099L165.032 40.1023L167.761 38.8964L170.27 37.9554L172.477 37.3376L174.301 37.0909L175.679 37.2485L176.562 37.8253L176.927 38.8161L176.772 40.1957L176.125 41.9212L175.03 43.9359L173.554 46.1745L171.771 48.5677L169.761 51.0481L167.605 53.5531L165.378 56.0284L163.148 58.4291L160.973 60.7202L158.9 62.8761L156.968 64.8794L155.205 66.7202L153.633 68.3941L152.268 69.9009L151.12 71.244L150.198 72.4287L149.505 73.4617L149.046 74.3504L148.824 75.1026L148.841 75.7261L149.101 76.2286L149.608 76.6175L150.366 76.8999L151.378 77.0832L152.65 77.1746L154.183 77.1817L155.981 77.1127L158.042 76.9771L160.362 76.7852L162.929 76.5497L165.727 76.2847L168.727 76.0073L171.892 75.7365L175.169 75.4942L178.494 75.3039L181.788 75.1905L184.959 75.1791L187.909 75.2932L190.534 75.553L192.734 75.9738L194.419 76.5641L195.519 77.3242L195.987 78.2459L195.808 79.313L194.996 80.5023L193.597 81.7855L191.679 83.1318L189.331 84.51L186.652 85.8912L183.743 87.2498L180.703 88.5649L177.623 89.821L174.581 91.0074L171.643 92.1183L168.861 93.1517L166.277 94.109L163.918 94.994L161.807 95.8123L159.955 96.5707L158.371 97.2769L157.058 97.9389L156.019 98.565L155.252 99.1636L154.758 99.7429L154.536 100.311L154.523 100.492Z" fill="#CE5900"/>
</svg>
