<svg width="661" height="661" viewBox="0 0 661 661" fill="none" xmlns="http://www.w3.org/2000/svg">
    <path fill-rule="evenodd" clip-rule="evenodd" d="M516.197 330.505L516.479 332.365L517.304 334.241L518.644 336.15L520.474 338.107L522.772 340.126L525.518 342.219L528.694 344.4L532.281 346.681L536.261 349.072L540.615 351.585L545.323 354.23L550.361 357.014L555.706 359.946L561.33 363.032L567.202 366.277L573.287 369.683L579.548 373.253L585.942 376.985L592.422 380.875L598.938 384.917L605.435 389.102L611.856 393.418L618.141 397.85L624.226 402.381L630.047 406.988L635.541 411.648L640.643 416.335L645.293 421.02L649.431 425.673L653.005 430.262L655.967 434.756L658.276 439.121L659.899 443.327L660.812 447.342L661 451.141L660.458 454.696L659.19 457.985L657.212 460.991L654.545 463.698L651.223 466.097L647.284 468.182L642.774 469.951L637.746 471.407L632.253 472.557L626.355 473.411L620.111 473.985L613.583 474.293L606.829 474.357L599.908 474.196L592.875 473.833L585.784 473.292L578.683 472.596L571.617 471.771L564.626 470.838L557.747 469.823L551.012 468.746L544.449 467.63L538.079 466.495L531.924 465.36L525.999 464.243L520.315 463.161L514.884 462.128L509.71 461.16L504.798 460.268L500.152 459.465L495.77 458.761L491.651 458.167L487.794 457.692L484.195 457.344L480.85 457.132L477.753 457.062L474.899 457.141L472.282 457.377L469.897 457.776L467.738 458.343L465.797 459.086L464.069 460.011L462.548 461.122L461.227 462.428L460.1 463.933L459.161 465.644L458.403 467.568L457.822 469.71L457.41 472.076L457.162 474.674L457.07 477.509L457.128 480.586L457.33 483.912L457.667 487.49L458.133 491.327L458.717 495.424L459.412 499.785L460.208 504.41L461.093 509.301L462.056 514.453L463.084 519.865L464.163 525.528L465.278 531.435L466.412 537.572L467.548 543.925L468.666 550.474L469.746 557.196L470.768 564.064L471.708 571.047L472.543 578.108L473.249 585.208L473.804 592.302L474.182 599.341L474.359 606.273L474.315 613.042L474.026 619.59L473.475 625.859L472.643 631.786L471.517 637.313L470.086 642.381L468.342 646.934L466.282 650.92L463.908 654.293L461.225 657.013L458.243 659.047L454.975 660.372L451.44 660.972L447.66 660.842L443.661 659.986L439.469 658.419L435.115 656.164L430.631 653.253L426.048 649.726L421.399 645.63L416.715 641.019L412.027 635.951L407.363 630.486L402.751 624.689L398.214 618.623L393.773 612.352L389.447 605.939L385.251 599.446L381.197 592.93L377.294 586.445L373.55 580.043L369.967 573.77L366.547 567.669L363.29 561.779L360.191 556.135L357.247 550.766L354.451 545.703L351.796 540.968L349.273 536.585L346.872 532.575L344.583 528.956L342.394 525.747L340.294 522.966L338.27 520.631L336.309 518.763L334.396 517.383L332.518 516.516L330.657 516.19L328.798 516.427L326.924 517.21L325.017 518.51L323.065 520.302L321.052 522.563L318.965 525.275L316.791 528.417L314.519 531.972L312.136 535.921L309.633 540.246L307 544.926L304.227 549.939L301.307 555.26L298.233 560.863L295.001 566.716L291.607 572.786L288.051 579.034L284.332 585.419L280.454 591.893L276.424 598.408L272.249 604.909L267.943 611.338L263.519 617.636L258.996 623.739L254.394 629.584L249.737 635.106L245.051 640.241L240.365 644.929L235.708 649.11L231.112 652.731L226.61 655.743L222.233 658.105L218.014 659.784L213.981 660.754L210.165 661L206.59 660.516L203.278 659.306L200.249 657.383L197.517 654.771L195.094 651.499L192.984 647.608L191.19 643.142L189.709 638.153L188.535 632.695L187.657 626.827L187.062 620.609L186.733 614.101L186.651 607.363L186.795 600.453L187.143 593.428L187.67 586.34L188.354 579.237L189.171 572.167L190.096 565.169L191.105 558.281L192.178 551.533L193.291 544.955L194.426 538.57L195.561 532.397L196.68 526.453L197.766 520.75L198.803 515.298L199.777 510.104L200.676 505.172L201.486 500.504L202.198 496.101L202.801 491.962L203.286 488.084L203.644 484.464L203.868 481.099L203.95 477.982L203.882 475.109L203.659 472.474L203.274 470.071L202.72 467.894L201.991 465.936L201.081 464.192L199.985 462.654L198.695 461.317L197.206 460.175L195.511 459.221L193.605 458.45L191.48 457.855L189.132 457.43L186.553 457.168L183.737 457.064L180.679 457.111L177.373 457.301L173.815 457.628L169.999 458.084L165.923 458.659L161.583 459.346L156.978 460.134L152.109 461.012L146.977 461.969L141.586 462.993L135.942 464.068L130.054 465.181L123.935 466.314L117.598 467.45L111.064 468.57L104.355 469.655L97.4969 470.681L90.5218 471.629L83.465 472.473L76.3665 473.191L69.2704 473.758L62.225 474.151L55.2826 474.345L48.4982 474.319L41.9297 474.051L35.6367 473.521L29.6796 472.712L24.1185 471.61L19.0121 470.203L14.4163 468.485L10.3832 466.45L6.9598 464.101L4.18654 461.443L2.09655 458.483L0.714593 455.238L0.0563965 451.724L0.128144 447.963L0.926267 443.98L2.43748 439.802L4.6391 435.46L7.49956 430.985L10.9793 426.409L15.0314 421.764L19.6034 417.082L24.6376 412.393L30.0732 407.727L35.8467 403.11L41.894 398.566L48.151 394.117L54.5546 389.781L61.0438 385.574L67.5604 381.508L74.0496 377.594L80.4602 373.837L86.7451 370.241L92.8612 366.808L98.7695 363.538L104.435 360.427L109.826 357.471L114.915 354.663L119.677 351.997L124.089 349.464L128.13 347.054L131.781 344.756L135.023 342.56L137.839 340.454L140.21 338.424L142.116 336.459L143.535 334.543L144.444 332.662L144.815 330.801L144.622 328.942L143.882 327.069L142.622 325.166L140.869 323.218L138.644 321.21L135.967 319.129L132.859 316.963L129.336 314.699L125.417 312.326L121.121 309.833L116.469 307.21L111.481 304.449L106.184 301.541L100.602 298.48L94.7675 295.261L88.7135 291.88L82.4779 288.336L76.1024 284.63L69.6329 280.765L63.1192 276.747L56.6151 272.583L50.1778 268.287L43.8674 263.872L37.7463 259.356L31.8786 254.76L26.3284 250.106L21.1596 245.422L16.434 240.734L12.2103 236.074L8.54284 231.473L5.48047 226.962L3.06517 222.574L1.33114 218.341L0.303974 214.293L0 210.458L0.425895 206.863L1.57857 203.53L3.4453 200.478L6.00413 197.722L9.22452 195.273L13.0682 193.139L17.4902 191.32L22.4399 189.814L27.8624 188.616L33.6999 187.715L39.8924 187.098L46.3797 186.749L53.1016 186.648L59.9999 186.774L67.0183 187.106L74.1037 187.621L81.2064 188.293L88.2811 189.1L95.2862 190.017L102.185 191.021L108.945 192.089L115.537 193.2L121.939 194.333L128.129 195.469L134.092 196.59L139.815 197.679L145.287 198.721L150.503 199.701L155.456 200.605L160.145 201.423L164.569 202.143L168.729 202.755L172.628 203.25L176.268 203.619L179.653 203.853L182.79 203.947L185.682 203.891L188.336 203.681L190.757 203.309L192.952 202.768L194.927 202.054L196.689 201.159L198.242 200.077L199.595 198.803L200.753 197.33L201.721 195.652L202.507 193.763L203.116 191.656L203.554 189.326L203.828 186.765L203.945 183.969L203.91 180.93L203.73 177.645L203.414 174.106L202.969 170.311L202.402 166.256L201.724 161.937L200.944 157.354L200.072 152.506L199.121 147.394L198.102 142.024L197.03 136.4L195.92 130.531L194.788 124.43L193.651 118.11L192.529 111.591L191.441 104.895L190.409 98.0481L189.455 91.0813L188.601 84.0298L187.872 76.9331L187.292 69.8353L186.885 62.7842L186.673 55.8317L186.681 49.0327L186.929 42.4451L187.438 36.1281L188.224 30.1421L189.302 24.5474L190.684 19.4028L192.378 14.7645L194.387 10.6849L196.712 7.21144L199.346 4.38515L202.282 2.23977L205.505 0.800764L208.999 0.0845935L212.741 0.0982148L216.708 0.838839L220.871 2.29395L225.201 4.44158L229.666 7.25087L234.236 10.6828L238.876 14.6912L243.557 19.2237L248.246 24.2232L252.915 29.629L257.538 35.3778L262.088 41.4056L266.546 47.648L270.891 54.042L275.109 60.5265L279.186 67.0428L283.113 73.536L286.883 79.9545L290.492 86.2509L293.938 92.3818L297.221 98.3079L300.345 103.994L303.313 109.408L306.132 114.522L308.809 119.31L311.353 123.751L313.772 127.822L316.078 131.504L318.282 134.78L320.396 137.631L322.431 140.037L324.401 141.981L326.32 143.44L328.204 144.391L330.066 144.805L331.924 144.658L333.795 143.959L335.695 142.74L337.639 141.025L339.642 138.837L341.716 136.196L343.875 133.121L346.131 129.631L348.495 125.743L350.978 121.477L353.591 116.852L356.341 111.89L359.237 106.616L362.286 101.057L365.492 95.2411L368.86 89.2034L372.391 82.9809L376.084 76.615L379.937 70.1514L383.944 63.6394L388.096 57.1326L392.382 50.688L396.788 44.3653L401.297 38.227L405.888 32.3369L410.538 26.7592L415.221 21.5578L419.909 16.7948L424.573 12.5292L429.18 8.81564L433.7 5.70352L438.098 3.23538L442.345 1.44608L446.409 0.36193L450.262 0L453.877 0.36775L457.232 1.46287L460.307 3.27338L463.087 5.77805L465.56 8.947L467.72 12.7425L469.564 17.1201L471.095 22.0297L472.317 27.4166L473.241 33.223L473.88 39.3894L474.25 45.8552L474.37 52.5605L474.261 59.4467L473.944 66.4573L473.444 73.5391L472.783 80.6421L471.986 87.7203L471.077 94.7323L470.079 101.641L469.015 108.412L467.907 115.019L466.775 121.437L465.638 127.644L464.515 133.626L463.423 139.368L462.377 144.86L461.392 150.096L460.481 155.07L459.655 159.78L458.927 164.225L458.306 168.406L457.802 172.325L457.423 175.986L457.177 179.392L457.073 182.547L457.116 185.459L457.314 188.131L457.673 190.571L458.199 192.784L458.9 194.776L459.78 196.554L460.847 198.124L462.105 199.493L463.562 200.666L465.224 201.649L467.096 202.449L469.185 203.072L471.498 203.524L474.04 203.811L476.817 203.939L479.836 203.916L483.102 203.748L486.62 203.442L490.395 203.007L494.429 202.45L498.727 201.78L503.29 201.008L508.117 200.143L513.207 199.197L518.558 198.184L524.162 197.116L530.011 196.008L536.095 194.877L542.398 193.74L548.902 192.616L555.585 191.524L562.421 190.487L569.38 189.526L576.426 188.663L583.521 187.924L590.62 187.331L597.677 186.909L604.64 186.681L611.453 186.67L618.06 186.899L624.401 187.386L630.416 188.149L636.044 189.204L641.226 190.561L645.907 192.23L650.033 194.214L653.556 196.513L656.436 199.123L658.636 202.035L660.132 205.236L660.906 208.709L660.951 212.432L660.268 216.382L658.869 220.53L656.775 224.848L654.018 229.304L650.633 233.866L646.669 238.502L642.176 243.181L637.212 247.87L631.836 252.542L626.112 257.169L620.104 261.726L613.876 266.192L607.492 270.546L601.012 274.775L594.496 278.864L587.999 282.803L581.572 286.585L575.265 290.207L569.119 293.666L563.175 296.962L557.469 300.098L552.032 303.078L546.893 305.909L542.077 308.597L537.608 311.151L533.507 313.58L529.793 315.894L526.484 318.106L523.599 320.226L521.156 322.267L519.175 324.242L517.676 326.165L516.684 328.05L516.226 329.913L516.197 330.505Z" fill="white" fill-opacity="0.15"/>
</svg>
